# xmcd
#
# Track frame offsets: 
#        150
#        5950
#        17303
#        33024
#        43144
#        49527
#        60633
#        63533
#        68890
#        73621
#        76625
#        89662
#        110849
#        131600
#        150633
#        167773
#        186415
#        209452
#        229490
#        266588
#        269081
#        273887
#        281389
#        289654
#        293253
#        297327
#        313288
#
# Disc length: 4398 seconds
#
# Revision: 1
# Processed by: cddbd v1.5PL3 Copyright (c) Steve Scherf et al.
# Submitted via: ExactAudioCopy v0.90b4
#
DISCID=9b112c1b
DTITLE=Ronnie Milsap - Ronnie Milsap Live
DYEAR=1900
DGENRE=Country
TTITLE0=Intorduction
TTITLE1=Don't You Know How Much I Love You
TTITLE2=Any Day Now
TTITLE3=What A Diffrence You Have Made In My Life
TTITLE4=I Wouldn't Have Missed It For The World
TTITLE5=It Was Almost Like A Song
TTITLE6=I'm A Stand By My Woman Man
TTITLE7=Pure Love
TTITLE8=There's No Gettin' Over Me
TTITLE9=What A Diffrence You Have Made In My Life (Reprise)
TTITLE10=A Woman In Love
TTITLE11=Lost In The Fifties Tonight
TTITLE12=Snap Your Fingers
TTITLE13=The Future Is Not What It Used To Be
TTITLE14=Happy, Happy Birthday Baby
TTITLE15=All Is Fair In Love And War
TTITLE16=My Babe
TTITLE17=Smokey Mountain Rain
TTITLE18=Stranger In My House
TTITLE19=I'm In Love Again (Piano Man Medley)
TTITLE20=Blueberry Hill (Piano Man Medley)
TTITLE21=What'd I Say (Piano Man Medley)
TTITLE22=Georgia On My Mind (Piano Man Medley)
TTITLE23=Last Date (Piano Man Medley)
TTITLE24=Whole Lotta Sakin' Goin' On (Piano Man Medley)
TTITLE25=Lucille (Piano Man Medley)
TTITLE26=America The Beautiful (Piano Man Medley)
EXTD=
EXTT0=
EXTT1=
EXTT2=
EXTT3=
EXTT4=
EXTT5=
EXTT6=
EXTT7=
EXTT8=
EXTT9=
EXTT10=
EXTT11=
EXTT12=
EXTT13=
EXTT14=
EXTT15=
EXTT16=
EXTT17=
EXTT18=
EXTT19=
EXTT20=
EXTT21=
EXTT22=
EXTT23=
EXTT24=
EXTT25=
EXTT26=
PLAYORDER=
